<?xml version="1.0" encoding="UTF-8" standalone="no"?>
<!-- Created with Inkscape (http://www.inkscape.org/) -->

<svg
   width="275.16666mm"
   height="166.6875mm"
   viewBox="0 0 275.16664 166.68751"
   version="1.1"
   id="svg5"
   inkscape:version="1.1.2 (b8e25be8, 2022-02-05)"
   sodipodi:docname="profile.svg"
   xmlns:inkscape="http://www.inkscape.org/namespaces/inkscape"
   xmlns:sodipodi="http://sodipodi.sourceforge.net/DTD/sodipodi-0.dtd"
   xmlns="http://www.w3.org/2000/svg"
   xmlns:svg="http://www.w3.org/2000/svg">
  <sodipodi:namedview
     id="namedview7"
     pagecolor="#ffffff"
     bordercolor="#666666"
     borderopacity="1.0"
     inkscape:pageshadow="2"
     inkscape:pageopacity="0.0"
     inkscape:pagecheckerboard="0"
     inkscape:document-units="mm"
     showgrid="true"
     inkscape:zoom="3.3262323"
     inkscape:cx="185.34484"
     inkscape:cy="72.30403"
     inkscape:window-width="1792"
     inkscape:window-height="1017"
     inkscape:window-x="0"
     inkscape:window-y="25"
     inkscape:window-maximized="0"
     inkscape:current-layer="layer2"
     inkscape:snap-page="true">
    <inkscape:grid
       type="xygrid"
       id="grid21"
       spacingx="2.6458333"
       spacingy="2.6458333"
       originx="111.12499"
       originy="10.583333" />
  </sodipodi:namedview>
  <defs
     id="defs2" />
  <g
     inkscape:groupmode="layer"
     id="layer7"
     inkscape:label="bg"
     transform="translate(118.56251,-16.375006)"
     style="display:none"
     sodipodi:insensitive="true">
    <rect
       style="fill:none;fill-opacity:1;stroke:none;stroke-width:0.922448;stroke-linejoin:bevel;stroke-dasharray:0.461223, 0.461223"
       id="rect17908"
       width="275.16666"
       height="166.6875"
       x="-118.56251"
       y="16.375006" />
  </g>
  <g
     inkscape:groupmode="layer"
     id="layer4"
     inkscape:label="areas"
     transform="translate(118.56251,-15.875003)"
     style="display:inline"
     sodipodi:insensitive="true">
    <path
       style="stroke:none;stroke-width:1;stroke-linejoin:bevel;stroke-miterlimit:4;stroke-dasharray:2, 2;stroke-dashoffset:0;stroke-opacity:1"
       d="m -110.625,34.395836 10.58333,-5.291667 v 15.875 H -110.625 Z"
       id="path3033"
       class="area area-platform-control" />
    <path
       style="stroke:none;stroke-width:1;stroke-linejoin:bevel;stroke-miterlimit:4;stroke-dasharray:2, 2;stroke-dashoffset:0;stroke-opacity:1"
       d="M 26.958332,137.58333 H 40.187498 V 150.8125 H 26.958332 Z"
       id="path3039"
       class="area area-entrance" />
    <rect
       style="stroke:none;stroke-width:1;stroke-linejoin:bevel;stroke-miterlimit:4;stroke-dasharray:2, 2;stroke-dashoffset:0;stroke-opacity:1"
       id="rect3063"
       width="23.8125"
       height="23.8125"
       x="40.187496"
       y="127"
       class="area area-1" />
    <rect
       style="stroke:none;stroke-width:1;stroke-linejoin:bevel;stroke-miterlimit:4;stroke-dasharray:2, 2;stroke-dashoffset:0;stroke-opacity:1"
       id="rect3067"
       width="21.166666"
       height="23.8125"
       x="63.999996"
       y="127"
       class="area area-2" />
    <rect
       style="stroke:none;stroke-width:1;stroke-linejoin:bevel;stroke-miterlimit:4;stroke-dasharray:2, 2;stroke-dashoffset:0;stroke-opacity:1"
       id="rect3069"
       width="23.8125"
       height="23.8125"
       x="85.166664"
       y="127"
       class="area area-3" />
    <path
       style="stroke:none;stroke-width:1;stroke-linejoin:bevel;stroke-miterlimit:4;stroke-dasharray:2, 2;stroke-dashoffset:0;stroke-opacity:1"
       d="m 108.97916,124.35416 h 13.22917 V 127 h 2.64583 v 23.8125 h -15.875 z"
       id="path3203"
       class="area area-4" />
    <path
       style="stroke:none;stroke-width:1;stroke-linejoin:bevel;stroke-miterlimit:4;stroke-dasharray:2, 2;stroke-dashoffset:0;stroke-opacity:1"
       d="m 124.85416,132.29166 c 7.9375,0 7.9375,7.9375 7.9375,7.9375 1e-5,0 1e-5,7.9375 -7.9375,7.9375 z"
       id="path3205"
       sodipodi:nodetypes="cccc"
       class="area area-observation" />
    <path
       style="stroke:none;stroke-width:1;stroke-linejoin:bevel;stroke-miterlimit:4;stroke-dasharray:2, 2;stroke-dashoffset:0;stroke-opacity:1"
       d="m -110.625,44.979168 h 10.58334 L 26.958332,140.22917 V 150.8125 L -100.04166,55.562501 H -110.625 Z"
       id="path4206"
       class="area area-tunnel" />
  </g>
  <g
     inkscape:groupmode="layer"
     id="layer1"
     inkscape:label="seabed"
     transform="translate(118.87542,-8.1245948)"
     sodipodi:insensitive="true">
    <path
       id="path882"
       style="fill:#0083d1;fill-opacity:1;stroke:none;stroke-width:3.77953;stroke-linejoin:bevel;stroke-opacity:1"
       d="m -418.10938,157.89062 c 278.73959,-105.260413 139.36979,-52.63021 0,0 z m 39.99914,3.99916 v 10 l 192.94227,144.70592 -2.94141,-14.70508 -40,-60 -30,-70 -20,-10 -70,10 c -8.6e-4,-8.4e-4 -30.00086,-10.00084 -30.00086,-10.00084 z m -39.99914,-3.99916 -30,-6 c -8.9e-4,169.99916 -7e-4,398.80302 -9.3e-4,539.99917 h 1040 l 7e-5,-113.56189 -39.99914,13.56272 h -50 l -40,-10 h -70 l -10,20 -40,20 h -50 l -50,-10 h -40 l -20,-10 -10,-10 -60,30 -10,-10 H 71.890625 l -30,10 -30,-10 -60,-10 -60.000005,-50 -20,-70 -40,-80 -7.64648,-38.23437 -202.35352,-151.76563 h -40 v -40 z"
       transform="matrix(0.26458333,0,0,0.26458333,-0.31291132,-8.2504109)"
       sodipodi:nodetypes="ccccccccccccccccccccccccccccccccccccccccc" />
  </g>
  <g
     inkscape:groupmode="layer"
     id="layer2"
     inkscape:label="facility"
     transform="translate(118.87542,-8.1245948)"
     sodipodi:insensitive="true">
    <rect
       style="fill:none;fill-opacity:1;stroke:#0083d1;stroke-width:1;stroke-linejoin:bevel;stroke-miterlimit:4;stroke-dasharray:none;stroke-opacity:1"
       id="rect1025"
       width="84.666664"
       height="23.8125"
       x="39.874588"
       y="119.24959" />
    <path
       style="fill:none;fill-opacity:1;stroke:#0083d1;stroke-width:1;stroke-linejoin:bevel;stroke-miterlimit:4;stroke-dasharray:none;stroke-opacity:1"
       d="m 42.52042,143.06209 v 7.93749 h 2.645833 v -7.93749 z"
       id="path1184"
       sodipodi:nodetypes="ccccc" />
    <path
       style="fill:none;fill-opacity:1;stroke:#0083d1;stroke-width:1;stroke-linejoin:bevel;stroke-miterlimit:4;stroke-dasharray:none;stroke-opacity:1"
       d="m 53.103753,143.06209 10.583333,13.22916 h 2.645833 L 55.749586,143.06209 h -2.645833"
       id="path1186"
       sodipodi:nodetypes="ccccc" />
    <path
       style="fill:none;fill-opacity:1;stroke:#0083d1;stroke-width:1;stroke-linejoin:bevel;stroke-miterlimit:4;stroke-dasharray:none;stroke-opacity:1"
       d="m 90.145419,143.06209 -13.229166,15.87499 h 2.645833 l 13.229166,-15.87499 z"
       id="path1188"
       sodipodi:nodetypes="ccccc" />
    <path
       style="fill:none;fill-opacity:1;stroke:#0083d1;stroke-width:1;stroke-linejoin:bevel;stroke-miterlimit:4;stroke-dasharray:none;stroke-opacity:1"
       d="m 103.37459,143.06209 v 7.93749 h 2.64583 v -7.93749 z"
       id="path1190"
       sodipodi:nodetypes="ccccc" />
    <path
       style="fill:none;fill-opacity:1;stroke:#0083d1;stroke-width:0.960769;stroke-linejoin:bevel;stroke-miterlimit:4;stroke-dasharray:none;stroke-opacity:1"
       d="m 121.89542,143.06209 v 31.75 h 2.64583 v -31.75 z"
       id="path1192"
       sodipodi:nodetypes="ccccc" />
    <path
       style="fill:none;fill-opacity:1;stroke:#0083d1;stroke-width:1;stroke-linejoin:bevel;stroke-miterlimit:4;stroke-dasharray:none;stroke-opacity:1"
       d="M 39.874586,129.83292 H 26.64542 v 13.22917 h 13.229166 v -13.22917"
       id="path1194"
       sodipodi:nodetypes="ccccc" />
    <path
       style="fill:none;fill-opacity:1;stroke:#0083d1;stroke-width:1;stroke-linejoin:bevel;stroke-miterlimit:4;stroke-dasharray:none;stroke-opacity:1"
       d="m 63.687086,119.24959 v 23.8125 h 21.166666 v -23.8125 z"
       id="path1196"
       sodipodi:nodetypes="ccccc" />
    <path
       style="fill:none;fill-opacity:1;stroke:#0083d1;stroke-width:1;stroke-linejoin:bevel;stroke-miterlimit:4;stroke-dasharray:none;stroke-opacity:1"
       d="m 108.66625,143.06209 v -26.45834 h 13.22917 v 26.45834 z"
       id="path1198"
       sodipodi:nodetypes="ccccc" />
    <path
       style="fill:none;fill-opacity:1;stroke:#0083d1;stroke-width:1;stroke-linejoin:bevel;stroke-miterlimit:4;stroke-dasharray:none;stroke-opacity:1"
       d="M 26.645422,143.0621 -100.35458,47.812095 h -10.58333 V 37.228762 h 10.58333 L 26.645422,132.47876 Z"
       id="path1200"
       sodipodi:nodetypes="ccccccc" />
    <path
       style="fill:none;fill-opacity:1;stroke:#0083d1;stroke-width:1;stroke-linejoin:bevel;stroke-miterlimit:4;stroke-dasharray:none;stroke-opacity:1"
       d="m 124.54125,124.54125 c 7.9375,0 7.9375,7.9375 7.9375,7.9375 0,0 0,7.9375 -7.9375,7.9375 z"
       id="path1251"
       sodipodi:nodetypes="cccc" />
    <path
       style="fill:none;fill-opacity:1;stroke:#0083d1;stroke-width:1;stroke-linejoin:bevel;stroke-miterlimit:4;stroke-dasharray:none;stroke-opacity:1"
       d="M -110.93791,37.228758 V 26.645425 l 10.58333,-5.291668 v 15.875001 h -10.58333"
       id="path2193"
       sodipodi:nodetypes="ccccc" />
    <path
       style="fill:none;fill-opacity:1;stroke:#0083d1;stroke-width:1;stroke-linejoin:bevel;stroke-miterlimit:4;stroke-dasharray:none;stroke-opacity:1"
       d="m -87.125419,34.582927 -1e-5,-7.937499"
       id="path2191-9"
       sodipodi:nodetypes="cc" />
    <path
       style="fill:#0083d1;fill-opacity:1;stroke:#0083d1;stroke-width:1;stroke-linejoin:bevel;stroke-miterlimit:4;stroke-dasharray:none;stroke-opacity:1"
       d="m -87.125419,34.582927 -2.64583,2.645833 h 5.29166 z"
       id="path2195-3"
       sodipodi:nodetypes="cccc" />
    <path
       style="fill:none;fill-opacity:1;stroke:none;stroke-width:1;stroke-linejoin:bevel;stroke-dasharray:0.499999, 0.499999"
       d="m -89.771253,26.645428 h 5.291666"
       id="path18948" />
  </g>
  <g
     inkscape:groupmode="layer"
     id="layer8"
     inkscape:label="flame"
     transform="translate(-21.166652,-15.875003)"
     sodipodi:insensitive="true">
    <path
       d="m 54.293038,31.559303 c -0.378648,-0.529681 -0.385931,-1.133961 -0.18813,-1.66755 -0.419185,0.445574 -0.65522,0.996501 -0.490396,1.55279 0.02091,0.07075 0.03433,0.140065 0.04414,0.21083 l 0.0038,0.08533 -0.02339,0.0093 -0.09956,-0.246807 c -0.141425,-0.420132 -0.162272,-0.8631 -0.02338,-1.318033 0.276572,-0.891086 -0.08477,-1.76362 -0.743672,-2.465259 0.303628,0.848382 0.275371,1.812988 -0.339228,2.666807 -0.118052,0.162764 -0.215117,0.328209 -0.292536,0.497562 l -0.04677,0.112004 0.0038,-0.02929 c 0.124116,-0.573601 -0.146298,-1.093937 -0.596224,-1.486083 0.233539,0.50821 0.269219,1.111274 -0.07008,1.684875 -0.283993,0.592241 -0.356542,1.327391 -0.133998,1.873031 0.347918,0.788427 0.810148,1.151273 1.43831,1.169913 0.09091,0.0013 0.184377,-0.0026 0.280301,-0.01601 0.512592,-0.06003 1.153048,-0.332041 1.359529,-0.976408 0.203987,-0.55248 0.301123,-1.118188 -0.08246,-1.657002 z"
       id="path19490"
       style="fill:#0083d1;fill-opacity:1;stroke-width:0.0120249" />
  </g>
  <g
     inkscape:groupmode="layer"
     id="layer3"
     inkscape:label="sea"
     transform="translate(118.87542,-8.1245948)"
     sodipodi:insensitive="true">
    <path
       style="fill:none;fill-opacity:1;stroke:#0083d1;stroke-width:1;stroke-linejoin:bevel;stroke-miterlimit:4;stroke-dasharray:2, 2;stroke-dashoffset:0;stroke-opacity:1"
       d="m -73.896244,39.874591 13.229167,2.645834 13.229166,-2.645834 13.229167,2.645834 13.229166,-2.645834 13.2291669,2.645834 13.2291665,-2.645834 13.2291666,2.645834 13.229166,-2.645834 13.229167,2.645834 13.229166,-2.645834 13.229167,2.645834 13.229166,-2.645834 13.229167,2.645834 13.060839,-2.645834 13.39749,2.645834 13.22917,-2.645834"
       id="path2744"
       class="animate-dash"
       sodipodi:nodetypes="ccccccccccccccccc" />
  </g>
  <g
     inkscape:groupmode="layer"
     id="layer6"
     inkscape:label="legend number"
     transform="translate(118.56251,-16.375006)"
     sodipodi:insensitive="true">
    <text
       xml:space="preserve"
       style="line-height:1.25;fill:#0084d1;fill-opacity:1;stroke:none;stroke-width:0.264583"
       x="156.25356"
       y="51.524723"
       id="text6650"
       text-anchor="end"><tspan
         sodipodi:role="line"
         style="fill:#0084d1;fill-opacity:1;stroke-width:0.264583"
         x="156.25356"
         y="51.524723"
         id="tspan11089">0m</tspan></text>
    <text
       xml:space="preserve"
       style="line-height:1.25;fill:#0084d1;fill-opacity:1;stroke:none;stroke-width:0.264583"
       x="156.25356"
       y="59.833958"
       id="text6650-0"
       text-anchor="end"><tspan
         sodipodi:role="line"
         style="fill:#0084d1;fill-opacity:1;stroke-width:0.264583"
         x="156.25356"
         y="59.833958"
         id="tspan11089-5">-10m</tspan></text>
    <text
       xml:space="preserve"
       style="line-height:1.25;fill:#0084d1;fill-opacity:1;stroke:none;stroke-width:0.264583"
       x="156.25356"
       y="68.146118"
       id="text6650-0-7"
       text-anchor="end"><tspan
         sodipodi:role="line"
         style="fill:#0084d1;fill-opacity:1;stroke-width:0.264583"
         x="156.25356"
         y="68.146118"
         id="tspan11089-5-7">-20m</tspan></text>
    <text
       xml:space="preserve"
       style="line-height:1.25;fill:#0084d1;fill-opacity:1;stroke:none;stroke-width:0.264583"
       x="156.25356"
       y="76.45536"
       id="text6650-0-7-10"
       text-anchor="end"><tspan
         sodipodi:role="line"
         style="fill:#0084d1;fill-opacity:1;stroke-width:0.264583"
         x="156.25356"
         y="76.45536"
         id="tspan11089-5-7-1">-30m</tspan></text>
    <text
       xml:space="preserve"
       style="line-height:1.25;fill:#0084d1;fill-opacity:1;stroke:none;stroke-width:0.264583"
       x="156.25356"
       y="84.761658"
       id="text6650-0-7-10-6"
       text-anchor="end"><tspan
         sodipodi:role="line"
         style="fill:#0084d1;fill-opacity:1;stroke-width:0.264583"
         x="156.25356"
         y="84.761658"
         id="tspan11089-5-7-1-0">-40m</tspan></text>
    <text
       xml:space="preserve"
       style="line-height:1.25;fill:#0084d1;fill-opacity:1;stroke:none;stroke-width:0.264583"
       x="156.25356"
       y="93.070908"
       id="text6650-07"
       text-anchor="end"><tspan
         sodipodi:role="line"
         style="fill:#0084d1;fill-opacity:1;stroke-width:0.264583"
         x="156.25356"
         y="93.070908"
         id="tspan11089-0">-50m</tspan></text>
    <text
       xml:space="preserve"
       style="line-height:1.25;fill:#0084d1;fill-opacity:1;stroke:none;stroke-width:0.264583"
       x="156.25356"
       y="101.38013"
       id="text6650-0-6"
       text-anchor="end"><tspan
         sodipodi:role="line"
         style="fill:#0084d1;fill-opacity:1;stroke-width:0.264583"
         x="156.25356"
         y="101.38013"
         id="tspan11089-5-9">-60m</tspan></text>
    <text
       xml:space="preserve"
       style="line-height:1.25;fill:#0084d1;fill-opacity:1;stroke:none;stroke-width:0.264583"
       x="156.25356"
       y="109.68937"
       id="text6650-0-7-1"
       text-anchor="end"><tspan
         sodipodi:role="line"
         style="fill:#0084d1;fill-opacity:1;stroke-width:0.264583"
         x="156.25356"
         y="109.68937"
         id="tspan11089-5-7-4">-70m</tspan></text>
    <text
       xml:space="preserve"
       style="line-height:1.25;fill:#0084d1;fill-opacity:1;stroke:none;stroke-width:0.264583"
       x="156.25356"
       y="118.00154"
       id="text6650-07-3"
       text-anchor="end"><tspan
         sodipodi:role="line"
         style="fill:#0084d1;fill-opacity:1;stroke-width:0.264583"
         x="156.25356"
         y="118.00154"
         id="tspan11089-0-7">-80m</tspan></text>
    <text
       xml:space="preserve"
       style="line-height:1.25;fill:#0084d1;fill-opacity:1;stroke:none;stroke-width:0.264583"
       x="156.25356"
       y="126.30784"
       id="text6650-0-6-8"
       text-anchor="end"><tspan
         sodipodi:role="line"
         style="fill:#0084d1;fill-opacity:1;stroke-width:0.264583"
         x="156.25356"
         y="126.30784"
         id="tspan11089-5-9-5">-90m</tspan></text>
    <text
       xml:space="preserve"
       style="line-height:1.25;fill:#0084d1;fill-opacity:1;stroke:none;stroke-width:0.264583"
       x="156.25356"
       y="134.61708"
       id="text6650-0-7-1-2"
       text-anchor="end"><tspan
         sodipodi:role="line"
         style="fill:#0084d1;fill-opacity:1;stroke-width:0.264583"
         x="156.25356"
         y="134.61708"
         id="tspan11089-5-7-4-9">-100m</tspan></text>
    <text
       xml:space="preserve"
       style="line-height:1.25;fill:#0084d1;fill-opacity:1;stroke:none;stroke-width:0.264583"
       x="156.25356"
       y="142.9263"
       id="text6650-07-31"
       text-anchor="end"><tspan
         sodipodi:role="line"
         style="fill:#0084d1;fill-opacity:1;stroke-width:0.264583"
         x="156.25356"
         y="142.9263"
         id="tspan11089-0-2">-110m</tspan></text>
    <text
       xml:space="preserve"
       style="line-height:1.25;fill:#0084d1;fill-opacity:1;stroke:none;stroke-width:0.264583"
       x="156.25356"
       y="151.23848"
       id="text6650-07-31-1"
       text-anchor="end"><tspan
         sodipodi:role="line"
         style="fill:#0084d1;fill-opacity:1;stroke-width:0.264583"
         x="156.25356"
         y="151.23848"
         id="tspan11089-0-2-1">-120m</tspan></text>
  </g>
</svg>
