<?xml version="1.0" encoding="UTF-8" standalone="no"?>
<!-- Created with Inkscape (http://www.inkscape.org/) -->

<svg
   width="98.749382mm"
   height="127.89468mm"
   viewBox="0 0 98.749379 127.89468"
   version="1.1"
   id="svg5"
   inkscape:version="1.2 (dc2aeda, 2022-05-15)"
   sodipodi:docname="top-down.svg"
   xmlns:inkscape="http://www.inkscape.org/namespaces/inkscape"
   xmlns:sodipodi="http://sodipodi.sourceforge.net/DTD/sodipodi-0.dtd"
   xmlns="http://www.w3.org/2000/svg"
   xmlns:svg="http://www.w3.org/2000/svg">
  <sodipodi:namedview
     id="namedview7"
     pagecolor="#ffffff"
     bordercolor="#666666"
     borderopacity="1.0"
     inkscape:pageshadow="2"
     inkscape:pageopacity="0.0"
     inkscape:pagecheckerboard="0"
     inkscape:document-units="mm"
     showgrid="true"
     inkscape:zoom="0.905042"
     inkscape:cx="77.344477"
     inkscape:cy="216.01207"
     inkscape:window-width="1385"
     inkscape:window-height="847"
     inkscape:window-x="55"
     inkscape:window-y="25"
     inkscape:window-maximized="0"
     inkscape:current-layer="outline"
     inkscape:snap-page="true"
     inkscape:showpageshadow="2"
     inkscape:deskcolor="#d1d1d1">
    <inkscape:grid
       type="xygrid"
       id="grid21"
       spacingx="2.6458333"
       spacingy="2.6458333"
       originx="-15.521445"
       originy="0.50000003" />
  </sodipodi:namedview>
  <defs
     id="defs2" />
  <g
     inkscape:groupmode="layer"
     id="rooms"
     inkscape:label="rooms"
     sodipodi:insensitive="true"
     style="display:inline"
     transform="translate(-7.7710345,-18.207922)">
    <path
       style="stroke:none;stroke-width:0.264583px;stroke-linecap:butt;stroke-linejoin:miter;stroke-opacity:1"
       d="M 31.937088,66.332921 H 18.707922 v 29.104167 l 13.229164,-2e-6 c 2e-6,-18.520831 2e-6,-15.874998 2e-6,-29.104165 z"
       id="path2842"
       class="area area-ia2"
       sodipodi:nodetypes="ccccc" />
    <path
       style="stroke:#000000;stroke-width:0.264583px;stroke-linecap:butt;stroke-linejoin:miter;stroke-opacity:1"
       d="m 55.749586,76.916253 h 23.8125 v 23.812497 h -23.8125 V 76.916253"
       id="path5946"
       class="area area-canteen" />
    <path
       style="stroke:none;stroke-width:1;stroke-linejoin:bevel;stroke-miterlimit:4;stroke-dasharray:none;stroke-opacity:1"
       d="m 63.687086,100.72875 h 15.875 v 7.9375 h -15.875 v -7.9375"
       id="path5983"
       class="area area-bar" />
    <path
       style="stroke:none;stroke-width:1;stroke-linejoin:bevel;stroke-miterlimit:4;stroke-dasharray:none;stroke-opacity:1"
       d="m 31.937086,82.207919 h 15.875 v 18.520831 h -15.875 V 82.207919"
       id="path5985"
       class="area area-aquatic-augmentation-research" />
    <rect
       style="stroke:none;stroke-width:1;stroke-linejoin:bevel;stroke-miterlimit:4;stroke-dasharray:none;stroke-opacity:1"
       id="rect6009"
       width="18.520834"
       height="21.166666"
       x="13.416254"
       y="95.43708"
       class="area area-ia3" />
    <rect
       style="stroke:none;stroke-width:1;stroke-linejoin:bevel;stroke-miterlimit:4;stroke-dasharray:none;stroke-opacity:1"
       id="rect6011"
       width="15.875"
       height="15.875"
       x="31.937088"
       y="100.72875"
       class="area area-lab-32a" />
    <rect
       style="stroke:none;stroke-width:1;stroke-linejoin:bevel;stroke-miterlimit:4;stroke-dasharray:none;stroke-opacity:1"
       id="rect6013"
       width="13.229166"
       height="15.875"
       x="53.103756"
       y="111.31208"
       class="area area-life-support" />
    <rect
       style="stroke:none;stroke-width:1;stroke-linejoin:bevel;stroke-miterlimit:4;stroke-dasharray:none;stroke-opacity:1"
       id="rect6015"
       width="15.875"
       height="15.875"
       x="66.332924"
       y="111.31208"
       class="area area-plant-room" />
    <rect
       style="stroke:none;stroke-width:1;stroke-linejoin:bevel;stroke-miterlimit:4;stroke-dasharray:none;stroke-opacity:1"
       id="rect6017"
       width="31.75"
       height="15.875"
       x="74.270416"
       y="127.18708"
       class="area area-ia4" />
    <rect
       style="stroke:none;stroke-width:1;stroke-linejoin:bevel;stroke-miterlimit:4;stroke-dasharray:none;stroke-opacity:1"
       id="rect6019"
       width="15.875"
       height="13.229166"
       x="50.45792"
       y="127.18708"
       class="area area-ia5" />
    <path
       style="stroke:none;stroke-width:1;stroke-linejoin:bevel;stroke-miterlimit:4;stroke-dasharray:none;stroke-opacity:1"
       d="M 31.937086,39.874589 H 53.103753 V 29.291256 H 84.853752 V 39.874589 H 95.437086 V 61.041253 H 82.207919 V 50.457922 H 50.45792 v 18.520831 h -7.9375 V 47.812089 H 31.937086 v -7.9375"
       id="path6054"
       class="area area-storage" />
    <path
       id="rect511"
       style="stroke-width:0.749561;stroke-linejoin:bevel"
       class="area area-walkway"
       d="m 31.937088,121.89542 v 5.29167 h 5.291667 l -23.8125,18.52083 -5.2916666,-5.29167 z"
       sodipodi:nodetypes="cccccc" />
  </g>
  <g
     inkscape:groupmode="layer"
     id="outline"
     inkscape:label="outline"
     transform="translate(18.874385,0.499999)"
     style="display:inline">
    <path
       id="path1595-9"
       style="fill:none;stroke:#0083d1;stroke-width:1;stroke-linecap:butt;stroke-linejoin:bevel;stroke-miterlimit:4;stroke-dasharray:none;stroke-opacity:1"
       d="M 68.791666,42.333333 H 55.562499 M -13.229165,76.729164 H 5.2916689 V 97.89583 H -13.229165 Z M 47.625,108.47916 h 31.75 v 15.875 h -31.75 z m -23.8125,0 h 15.875 v 13.22916 H 23.8125 Z M 68.791666,31.75 H 79.374999 M 44.979166,82.020832 v 5.291667 m -7.9375,0 h 7.9375 v 2.645833 M 23.8125,47.624999 v 5.291667 M -13.229165,127 10.583335,108.47917 M 39.6875,92.604164 h 15.875 v 15.874996 h -15.875 z m -13.229168,0 H 39.687498 V 108.47916 H 26.458332 Z M 5.2916675,82.020836 H 21.166667 v 15.875 H 5.2916675 Z m 0,-18.520836 H 21.166667 V 82.020834 H 5.2916675 Z M 37.041668,82.020836 h 15.875 v 7.9375 h -15.875 z M 29.104166,58.208332 h 23.8125 v 23.8125 h -23.8125 z M 5.2916675,29.104166 H 15.875 V 50.270832 H 5.2916675 Z M 34.395832,31.75 H 55.562498 V 42.333333 H 34.395832 Z m -10.583332,0 H 34.395833 V 47.625 H 23.8125 Z M 5.2916675,10.583333 H 26.458333 V 21.166666 H 5.2916675 Z M 68.791664,21.166666 H 79.374997 V 42.333332 H 68.791664 Z M 58.208332,10.583333 H 79.374998 V 21.166666 H 58.208332 Z m -52.9166646,0 V 108.47916 H 79.374999 V 10.583333 l -31.749998,1e-6 V 1e-6 H 37.041668 V 10.583334 H 47.625001 37.041668 Z M -7.9374984,76.729167 V 47.625 H 5.2916681 m 0,55.5625 -23.8125001,18.52083 5.291667,5.29167"
       sodipodi:nodetypes="ccccccccccccccccccccccccccccccccccccccccccccccccccccccccccccccccccccccccccccccccccccccccccccccccccccccccc"
       inkscape:label="path1595-9" />
  </g>
</svg>
